<?xml version="1.0" encoding="UTF-8" standalone="no"?>
<svg width="220px" height="66px" viewBox="0 0 220 66" version="1.1" xmlns="http://www.w3.org/2000/svg" xmlns:xlink="http://www.w3.org/1999/xlink">
    <!-- Generator: Sketch 43.2 (39069) - http://www.bohemiancoding.com/sketch -->
    <title>logo</title>
    <desc>Created with Sketch.</desc>
    <defs></defs>
    <g id="Page-1" stroke="none" stroke-width="1" fill="none" fill-rule="evenodd">
        <g id="logo" fill-rule="nonzero">
            <g transform="translate(16.000000, 16.000000)">
                <ellipse id="Oval" fill="#D82532" cx="16.3144509" cy="16.425" rx="15.6485549" ry="15.8625"></ellipse>
                <polygon id="Shape" fill="#333740" points="48.8323699 9.1125 48.8323699 28.4625 43.5052023 28.4625 43.5052023 9.1125 36.8462428 9.1125 36.8462428 4.5 55.4913295 4.5 55.4913295 9.1125"></polygon>
                <path d="M68.4763006,11.3625 C67.033526,10.2375 65.2578035,9.675 63.0381503,9.675 C59.9306358,9.675 57.267052,10.575 54.8254335,12.2625 L57.0450867,15.6375 C57.7109827,15.075 58.5988439,14.625 59.4867052,14.2875 C60.4855491,13.95 61.3734104,13.725 62.2612717,13.725 C64.2589595,13.725 65.3687861,14.7375 65.3687861,16.65 L65.3687861,16.875 L61.5953757,16.875 C59.2647399,16.875 57.3780347,17.325 56.0462428,18.225 C54.7144509,19.125 54.0485549,20.5875 54.0485549,22.5 C54.0485549,24.4125 54.7144509,25.875 56.0462428,27 C57.3780347,28.125 58.9317919,28.6875 60.9294798,28.6875 C62.7052023,28.6875 63.5930636,28.0125 63.7040462,26.775 L63.8150289,24.075 C63.2601156,24.3 62.7052023,24.525 62.150289,24.525 C61.2624277,24.525 60.5965318,24.3 60.0416185,23.9625 C59.5976879,23.625 59.2647399,23.0625 59.2647399,22.3875 C59.2647399,21.15 60.2635838,20.475 62.2612717,20.475 L65.4797688,20.475 L65.4797688,28.35 L70.5849711,28.35 L70.5849711,16.7625 C70.5849711,14.2875 69.8080925,12.4875 68.4763006,11.3625 Z" id="Shape" fill="#333740"></path>
                <path d="M133.068208,11.3625 C131.625434,10.2375 129.849711,9.675 127.630058,9.675 C124.522543,9.675 121.85896,10.575 119.417341,12.2625 L121.636994,15.6375 C122.30289,15.075 123.190751,14.625 124.078613,14.2875 C125.077457,13.95 125.965318,13.725 126.853179,13.725 C128.850867,13.725 129.960694,14.7375 129.960694,16.65 L129.960694,16.875 L126.187283,16.875 C123.856647,16.875 121.969942,17.325 120.63815,18.225 C119.306358,19.125 118.640462,20.5875 118.640462,22.5 C118.640462,24.4125 119.306358,25.875 120.63815,27 C121.969942,28.125 123.523699,28.6875 125.521387,28.6875 C127.29711,28.6875 128.184971,28.0125 128.295954,26.775 L128.406936,24.075 C127.852023,24.3 127.29711,24.525 126.742197,24.525 C125.854335,24.525 125.188439,24.3 124.633526,23.9625 C124.189595,23.625 123.856647,23.0625 123.856647,22.3875 C123.856647,21.15 124.855491,20.475 126.853179,20.475 L130.071676,20.475 L130.071676,28.35 L135.176879,28.35 L135.176879,16.7625 C135.176879,14.2875 134.4,12.4875 133.068208,11.3625 Z" id="Shape" fill="#333740"></path>
                <polygon id="Shape" fill="#333740" points="77.9098266 10.0125 81.017341 14.9625 84.2358382 10.0125 90.2289017 10.0125 84.0138728 19.0125 90.5618497 28.4625 84.3468208 28.4625 80.7953757 23.4 77.3549133 28.4625 71.4728324 28.4625 77.7988439 19.0125 71.8057803 10.0125"></polygon>
                <path d="M97.6647399,9.3375 C97.1098266,9.7875 96.8878613,10.35 96.8878613,11.025 C96.8878613,11.7 97.2208092,12.2625 97.7757225,12.7125 C98.4416185,13.1625 99.7734104,13.6125 102.104046,14.175 C104.323699,14.7375 106.099422,15.525 107.320231,16.65 C108.54104,17.775 109.206936,19.35 109.206936,21.6 C109.206936,23.7375 108.430058,25.5375 106.876301,26.775 C105.322543,28.125 103.213873,28.8 100.550289,28.8 C96.7768786,28.8 93.4473988,27.3375 90.4508671,24.6375 L93.5583815,20.7 C96.1109827,22.95 98.4416185,24.075 100.661272,24.075 C101.660116,24.075 102.436994,23.85 102.991908,23.4 C103.546821,22.95 103.768786,22.3875 103.768786,21.7125 C103.768786,21.0375 103.435838,20.475 102.880925,20.025 C102.326012,19.575 101.105202,19.125 99.4404624,18.7875 C96.665896,18.1125 94.6682081,17.2125 93.4473988,16.2 C92.2265896,15.1875 91.5606936,13.5 91.5606936,11.1375 C91.5606936,8.8875 92.3375723,7.0875 94.0023121,5.85 C95.667052,4.6125 97.6647399,4.05 99.9953757,4.05 C101.549133,4.05 103.10289,4.275 104.76763,4.8375 C106.321387,5.4 107.764162,6.1875 108.873988,7.2 L106.210405,11.1375 C104.212717,9.5625 101.993064,8.775 99.8843931,8.775 C98.7745665,8.6625 98.1086705,8.8875 97.6647399,9.3375 Z" id="Shape" fill="#333740"></path>
                <polygon id="Shape" fill="#333740" points="116.531792 28.4625 111.42659 28.4625 111.42659 3.0375 116.531792 3.0375"></polygon>
                <path d="M140.947977,35.775 C139.172254,35.775 137.507514,34.9875 135.953757,33.525 L138.284393,29.7 C139.172254,30.6 140.060116,30.9375 140.947977,30.9375 C141.391908,30.9375 141.835838,30.7125 142.168786,30.2625 C142.501734,29.8125 142.723699,29.25 142.723699,28.8 C142.723699,28.35 140.393064,22.05 135.731792,10.0125 L141.169942,10.0125 L145.609249,21.4875 L150.048555,10.0125 L155.486705,10.0125 L147.052023,31.725 C146.608092,32.9625 145.831214,33.975 144.721387,34.65 C143.389595,35.4375 142.279769,35.775 140.947977,35.775 Z" id="Shape" fill="#333740"></path>
                <path d="M171.801156,25.7625 C169.692486,27.675 167.36185,28.6875 164.587283,28.6875 C161.812717,28.6875 159.593064,27.7875 157.706358,26.1 C155.930636,24.4125 155.042775,22.05 155.042775,19.125 C155.042775,16.2 155.930636,13.95 157.817341,12.15 C159.704046,10.4625 161.812717,9.5625 164.365318,9.5625 C166.917919,9.5625 169.02659,10.35 170.691329,11.8125 C172.467052,13.3875 173.354913,15.4125 173.354913,18.1125 L173.354913,20.8125 L160.036994,20.8125 C160.147977,21.825 160.70289,22.6125 161.590751,23.2875 C162.478613,23.9625 163.477457,24.3 164.587283,24.3 C166.363006,24.3 167.80578,23.7375 169.02659,22.5 L171.801156,25.7625 Z M166.917919,14.85 C166.252023,14.2875 165.364162,13.95 164.365318,13.95 C163.366474,13.95 162.478613,14.2875 161.590751,14.85 C160.70289,15.4125 160.25896,16.3125 160.147977,17.325 L168.138728,17.325 C168.027746,16.3125 167.583815,15.525 166.917919,14.85 Z" id="Shape" fill="#333740"></path>
                <path d="M184.786127,14.5125 C183.23237,14.5125 182.122543,15.075 181.456647,16.0875 C180.679769,17.2125 180.346821,18.5625 180.346821,20.3625 L180.346821,28.35 L175.241618,28.35 L175.241618,10.0125 L180.346821,10.0125 L180.346821,12.4875 C181.012717,11.7 181.789595,11.1375 182.788439,10.575 C183.787283,10.0125 184.786127,9.7875 185.784971,9.7875 L185.784971,14.625 L184.786127,14.625 L184.786127,14.5125 L184.786127,14.5125 Z" id="Shape" fill="#333740"></path>
                <path d="M17.8682081,6.8625 C16.8693642,6.4125 15.6485549,6.4125 14.649711,6.8625 C12.3190751,7.875 8.21271676,9.7875 8.21271676,11.1375 L8.21271676,23.0625 L14.649711,26.325 L14.316763,18.225 L10.5433526,17.1 L10.5433526,14.2875 L16.2034682,14.625 L21.8635838,14.2875 L21.8635838,17.1 L18.0901734,18.225 L17.7572254,26.325 L24.1942197,23.0625 L24.1942197,11.1375 C24.3052023,9.7875 20.1988439,7.875 17.8682081,6.8625 Z" id="Shape" fill="#FFFFFF"></path>
                <path d="M191.223121,5.4 C191.223121,6.75 190.224277,7.7625 188.781503,7.7625 C187.449711,7.7625 186.339884,6.75 186.339884,5.4 C186.339884,4.05 187.449711,3.0375 188.781503,3.0375 C190.224277,2.925 191.223121,4.05 191.223121,5.4 Z M187.00578,5.4 C187.00578,6.4125 187.782659,7.3125 188.892486,7.3125 C189.891329,7.3125 190.668208,6.525 190.668208,5.4 C190.668208,4.3875 189.891329,3.4875 188.892486,3.4875 C187.782659,3.4875 187.00578,4.275 187.00578,5.4 Z M188.448555,6.6375 L187.893642,6.6375 L187.893642,4.275 C188.115607,4.275 188.448555,4.1625 188.781503,4.1625 C189.225434,4.1625 189.447399,4.275 189.558382,4.3875 C189.669364,4.5 189.780347,4.725 189.780347,4.95 C189.780347,5.175 189.558382,5.4 189.336416,5.5125 L189.336416,5.5125 C189.558382,5.625 189.669364,5.7375 189.780347,6.075 C189.891329,6.4125 189.891329,6.6375 190.002312,6.6375 L189.447399,6.6375 C189.336416,6.525 189.336416,6.3 189.225434,6.075 C189.225434,5.85 189.003468,5.7375 188.781503,5.7375 L188.559538,5.7375 L188.559538,6.6375 L188.448555,6.6375 L188.448555,6.6375 Z M188.448555,5.2875 L188.67052,5.2875 C189.003468,5.2875 189.225434,5.175 189.225434,4.95 C189.225434,4.725 189.114451,4.6125 188.67052,4.6125 L188.337572,4.6125 L188.337572,5.2875 L188.448555,5.2875 Z" id="Shape" fill="#333740"></path>
            </g>
        </g>
    </g>
</svg>